HIERARCHY
ROOT SpineBase
{
  OFFSET 0.000000 0.000000 0.000000
  CHANNELS 6 Xposition Yposition Zposition Zrotation Xrotation Yrotation
  JOINT SpineMid
  {
    OFFSET -0.000000 22.531647 0.000000
    CHANNELS 3 Zrotation Xrotation Yrotation
    JOINT SpineShoulder
    {
      OFFSET 0.018494 16.672414 -0.266857
      CHANNELS 3 Zrotation Xrotation Yrotation
      JOINT Neck
      {
        OFFSET 0.012157 5.485435 -0.236085
        CHANNELS 3 Zrotation Xrotation Yrotation
        JOINT Head
        {
          OFFSET 3.586943 10.317737 -4.380478
          CHANNELS 3 Zrotation Xrotation Yrotation
          End Site
          {
            OFFSET 0 0 0
          }
        }
      }
      JOINT ShoulderLeft
      {
        OFFSET -13.709879 -4.619943 -8.056636
        CHANNELS 3 Zrotation Xrotation Yrotation
        JOINT ElbowLeft
        {
          OFFSET 2.073574 -23.249349 -4.242727
          CHANNELS 3 Zrotation Xrotation Yrotation
          JOINT WristLeft
          {
            OFFSET -0.111276 -11.563913 -18.296226
            CHANNELS 3 Zrotation Xrotation Yrotation
            JOINT HandLeft
            {
              OFFSET 0.269938 -1.917491 -2.280031
              CHANNELS 3 Zrotation Xrotation Yrotation
              JOINT HandTipLeft
              {
                OFFSET 2.394675 -3.805285 -1.614758
                CHANNELS 3 Zrotation Xrotation Yrotation
                End Site
                {
                  OFFSET 0 0 0
                }
              }
              JOINT ThumbLeft
              {
                OFFSET -2.225365 -3.746341 3.753408
                CHANNELS 3 Zrotation Xrotation Yrotation
                End Site
                {
                  OFFSET 0 0 0
                }
              }
            }
          }
        }
      }
      JOINT ShoulderRight
      {
        OFFSET 12.411200 -2.916545 5.199658
        CHANNELS 3 Zrotation Xrotation Yrotation
        JOINT ElbowRight
        {
          OFFSET 4.619572 -16.461557 0.560993
          CHANNELS 3 Zrotation Xrotation Yrotation
          JOINT WristRight
          {
            OFFSET 5.201135 -14.510693 -10.027662
            CHANNELS 3 Zrotation Xrotation Yrotation
            JOINT HandRight
            {
              OFFSET -0.190920 -0.410558 -2.315816
              CHANNELS 3 Zrotation Xrotation Yrotation
              JOINT HandTipRight
              {
                OFFSET 2.609692 -0.897533 -6.390006
                CHANNELS 3 Zrotation Xrotation Yrotation
                End Site
                {
                  OFFSET 0 0 0
                }
              }
              JOINT ThumbRight
              {
                OFFSET 2.233421 1.374982 -5.860118
                CHANNELS 3 Zrotation Xrotation Yrotation
                End Site
                {
                  OFFSET 0 0 0
                }
              }
            }
          }
        }
      }
    }
  }
  JOINT HipLeft
  {
    OFFSET -5.794310 0.474280 -4.618696
    CHANNELS 3 Zrotation Xrotation Yrotation
    JOINT KneeLeft
    {
      OFFSET 24.315813 -11.282657 -25.000953
      CHANNELS 3 Zrotation Xrotation Yrotation
      JOINT AnkleLeft
      {
        OFFSET -2.427565 -35.888559 5.638468
        CHANNELS 3 Zrotation Xrotation Yrotation
        JOINT FootLeft
        {
          OFFSET 3.769535 -6.517818 -9.543687
          CHANNELS 3 Zrotation Xrotation Yrotation
          End Site
          {
            OFFSET 0 0 0
          }
        }
      }
    }
  }
  JOINT HipRight
  {
    OFFSET 5.780851 -0.596941 -0.436103
    CHANNELS 3 Zrotation Xrotation Yrotation
    JOINT KneeRight
    {
      OFFSET 31.011088 -29.800289 -11.113660
      CHANNELS 3 Zrotation Xrotation Yrotation
      JOINT AnkleRight
      {
        OFFSET -2.939109 -17.643482 6.760921
        CHANNELS 3 Zrotation Xrotation Yrotation
        JOINT FootRight
        {
          OFFSET 0.778934 -3.552598 -10.308292
          CHANNELS 3 Zrotation Xrotation Yrotation
          End Site
          {
            OFFSET 0 0 0
          }
        }
      }
    }
  }
}
MOTION
Frames: 12
Frame Time: 0.033333
5.455863 53.496660 382.278540 -1.445600 5.117961 -27.044732 0.219234 -0.264456 27.081740 0.469346 -0.419948 -0.004888 0.065328 -8.013701 0.892859 0.000000 0.000000 0.000000 -3.991951 -5.488400 0.455378 6.544724 0.241811 -3.515857 0.794546 -2.835168 -0.688640 -4.008354 5.412495 5.407619 0.000000 0.000000 0.000000 0.000000 0.000000 0.000000 -33.725778 28.625218 17.841293 104.277980 -75.347547 29.838224 26.297144 63.338513 -139.141811 81.786996 -23.444960 50.724518 0.000000 0.000000 0.000000 0.000000 0.000000 0.000000 1.822312 -15.294767 19.502804 5.564630 10.119865 6.935266 -0.400633 -1.606327 -0.356086 0.000000 0.000000 0.000000 9.929837 -2.350608 23.828930 -2.096534 6.392614 4.488545 2.421552 33.309415 -7.110419 0.000000 0.000000 0.000000
5.555702 53.429641 382.728418 -1.114467 4.264804 -26.864270 -0.328391 -0.116242 26.864856 0.422713 -0.197805 -0.011513 0.324819 -7.525590 0.888899 0.000000 0.000000 0.000000 -2.624160 -5.451251 0.334862 4.780526 1.425650 -2.379500 -0.153050 -0.621471 0.572757 -1.225631 4.922976 4.050361 0.000000 0.000000 0.000000 0.000000 0.000000 0.000000 -23.704381 19.667639 10.158185 70.101106 -60.078492 -4.934906 92.286243 49.980854 156.486693 138.998384 -8.244371 63.275933 0.000000 0.000000 0.000000 0.000000 0.000000 0.000000 0.536392 -15.455728 20.165442 6.791940 9.409912 5.885703 -0.468158 -0.197632 -0.432508 0.000000 0.000000 0.000000 7.832386 -2.713248 23.861087 -1.222512 5.601454 4.016651 5.875421 13.323134 -17.558254 0.000000 0.000000 0.000000
5.598062 53.367596 382.916814 -0.921316 4.026028 -27.425903 -0.322367 -0.360891 27.413719 0.478866 -0.009888 -0.004752 0.024510 -6.920896 0.685317 0.000000 0.000000 0.000000 -3.153385 -5.252842 0.369818 5.363250 1.586076 -2.761375 -1.298705 -0.278352 2.061879 -0.126286 2.006644 1.309832 0.000000 0.000000 0.000000 0.000000 0.000000 0.000000 -17.394461 12.222953 5.626236 61.691989 -46.727073 -15.844638 55.254430 51.394248 -173.230448 116.640135 -5.757581 60.069737 0.000000 0.000000 0.000000 0.000000 0.000000 0.000000 0.493220 -15.238544 20.524370 6.443407 9.288830 6.131677 -0.179224 -0.021256 -0.468647 0.000000 0.000000 0.000000 6.565901 -3.523237 24.394530 -0.264681 5.494912 3.940340 1.261992 2.932440 -10.872921 0.000000 0.000000 0.000000
5.767949 53.238266 383.347671 -0.479658 3.305992 -26.744968 -0.557117 -0.353032 26.716088 0.516456 0.318280 0.003547 -0.476164 -6.256752 0.426933 0.000000 0.000000 0.000000 -3.092416 -4.898439 0.338657 4.943123 1.992467 -2.553951 -2.955740 2.506121 4.289065 2.936031 0.069004 -0.646792 0.000000 0.000000 0.000000 0.000000 0.000000 0.000000 -12.317494 4.979070 2.250933 55.946365 -32.112354 -22.961660 -8.269362 18.139369 -120.047275 54.740618 -12.908858 48.497479 0.000000 0.000000 0.000000 0.000000 0.000000 0.000000 0.649040 -11.831423 20.372647 4.387790 8.073809 5.960781 -0.091496 -1.079948 -0.498596 0.000000 0.000000 0.000000 4.563273 -4.238469 23.726122 1.452283 5.975945 3.814910 -0.810581 -3.968962 -8.734363 0.000000 0.000000 0.000000
5.892687 53.128967 383.212814 -0.256226 3.826648 -25.731623 -0.206806 -1.054836 25.697121 0.437196 0.538286 0.003487 -0.668644 -6.406790 0.466452 0.000000 0.000000 0.000000 -4.598020 -5.244728 0.425312 7.053136 2.223681 -4.017869 -4.677639 5.547230 6.728338 4.408586 -2.011338 -1.281442 0.000000 0.000000 0.000000 0.000000 0.000000 0.000000 -8.630417 -1.001655 0.078235 53.522683 -21.309328 -27.806864 -34.371175 -25.703794 -91.209972 -7.253855 -4.597123 9.086679 0.000000 0.000000 0.000000 0.000000 0.000000 0.000000 1.027030 -11.026027 19.394412 3.389556 6.960990 6.086038 -0.087498 -1.178265 -0.562967 0.000000 0.000000 0.000000 3.759723 -6.311689 22.152020 2.758110 6.544117 4.418439 -3.932907 -9.687814 -2.067309 0.000000 0.000000 0.000000
5.983412 53.119196 383.259842 -0.044766 3.790625 -25.293698 -0.128352 -1.172012 25.259379 0.435985 0.583934 0.008255 -1.008478 -6.434342 0.454195 0.000000 0.000000 0.000000 -5.395431 -4.618080 0.548559 7.941454 1.425271 -4.671427 -2.530990 5.813650 4.302063 1.474257 -2.789908 0.921568 0.000000 0.000000 0.000000 0.000000 0.000000 0.000000 -6.649699 -4.683270 -1.079666 49.082628 -8.764235 -28.196834 -33.620828 -36.657448 -77.422473 -31.113521 32.450176 -7.481796 0.000000 0.000000 0.000000 0.000000 0.000000 0.000000 0.954733 -10.291371 19.343511 2.959503 6.257402 5.754799 -0.056820 -1.180922 -0.609760 0.000000 0.000000 0.000000 2.919624 -7.140667 21.500124 3.815616 6.483847 4.696966 -6.698791 -16.902868 4.903690 0.000000 0.000000 0.000000
5.905717 53.191777 382.982645 -0.240278 4.360039 -25.045279 0.278480 -1.417265 25.028996 0.368646 0.465713 0.006077 -1.088388 -6.763527 0.506503 0.000000 0.000000 0.000000 -4.607679 -3.629213 0.590532 6.729101 0.183285 -3.891014 0.976964 3.743564 -0.078153 -2.084652 -3.253624 2.990123 0.000000 0.000000 0.000000 0.000000 0.000000 0.000000 -6.164640 -5.885422 -1.423993 45.379539 0.040530 -25.884400 -28.722065 -35.800822 -70.786133 -84.252323 -14.365305 140.891032 0.000000 0.000000 0.000000 0.000000 0.000000 0.000000 1.264665 -11.031292 18.899040 3.099165 6.532743 5.943839 -0.129005 -1.286525 -0.566312 0.000000 0.000000 0.000000 3.363037 -8.083617 20.847364 4.236487 7.215391 5.177275 -6.490876 -11.914909 3.663091 0.000000 0.000000 0.000000
6.031919 53.218441 383.618461 0.007402 2.938170 -24.625143 -0.409802 -0.384097 24.598456 0.246415 0.582253 -0.000595 -1.148118 -6.981444 0.550250 0.000000 0.000000 0.000000 -4.618024 -2.704020 0.721262 6.801252 -1.301426 -3.957935 3.178780 1.825263 -2.946388 -4.894459 -2.855718 5.053640 0.000000 0.000000 0.000000 0.000000 0.000000 0.000000 -7.726940 -3.520788 -0.790381 40.202812 4.305026 -19.713528 -22.210391 -34.081050 -48.067539 -43.143312 7.788259 123.562409 0.000000 0.000000 0.000000 0.000000 0.000000 0.000000 -0.012563 -9.791418 19.785809 4.506196 6.472562 4.572464 -0.965397 -1.123212 -0.676467 0.000000 0.000000 0.000000 2.748661 -5.966765 20.943703 4.252064 7.557976 4.620835 -6.073937 -3.063950 2.320196 0.000000 0.000000 0.000000
6.140827 53.246032 383.504137 0.153057 3.271244 -24.724626 -0.401988 -0.702222 24.688394 0.079472 0.579075 -0.010568 -1.063319 -7.411498 0.655714 0.000000 0.000000 0.000000 -4.776585 -2.191087 0.842763 7.179178 -3.127072 -4.199150 2.408401 4.018865 -2.026193 -4.456719 -2.465810 5.011477 0.000000 0.000000 0.000000 0.000000 0.000000 0.000000 -7.450781 -3.958594 -0.913966 31.587667 12.645677 -12.819170 -15.777214 -30.964177 -30.446800 -16.288549 5.646633 87.773123 0.000000 0.000000 0.000000 0.000000 0.000000 0.000000 -0.542390 -11.289135 20.113222 5.692047 7.205710 4.172885 -1.204638 -1.075002 -0.752941 0.000000 0.000000 0.000000 2.812939 -6.346901 21.005156 4.588792 7.952751 4.719965 -5.617175 -2.709916 -0.070851 0.000000 0.000000 0.000000
6.266875 53.222823 383.521122 0.292565 3.269405 -25.171904 -0.512226 -0.706980 25.128940 -0.134718 0.598354 -0.023260 -0.932284 -7.808662 0.749834 0.000000 0.000000 0.000000 -5.327519 -2.319348 0.939618 8.121520 -3.934770 -4.711038 1.945908 2.545069 -1.658648 -4.368203 -0.158272 5.201215 0.000000 0.000000 0.000000 0.000000 0.000000 0.000000 -6.919923 -4.187637 -0.930501 23.824853 17.593577 -6.562421 -10.436109 -21.816991 -23.729082 -2.456861 -16.875712 65.336703 0.000000 0.000000 0.000000 0.000000 0.000000 0.000000 -1.575667 -13.440818 20.982245 7.620499 8.323585 3.379873 -1.313362 -0.677714 -0.856792 0.000000 0.000000 0.000000 2.623243 -6.333208 21.565040 5.044387 8.019419 4.673401 -6.398885 -6.624114 -0.069733 0.000000 0.000000 0.000000
6.328576 53.267793 383.355311 0.291518 3.634023 -27.169491 -0.374667 -0.896354 27.124781 -0.334008 0.501978 -0.036414 -0.829088 -8.090047 0.792753 0.000000 0.000000 0.000000 -7.143089 -2.977173 1.117620 10.808698 -4.837663 -6.297648 -0.534673 3.456829 1.543645 -1.884563 1.341241 3.521227 0.000000 0.000000 0.000000 0.000000 0.000000 0.000000 -6.599083 -4.609962 -1.035687 17.052051 20.608967 -0.961474 -7.919725 -20.711515 -12.504025 -4.569412 -23.094447 39.335858 0.000000 0.000000 0.000000 0.000000 0.000000 0.000000 -1.705832 -15.993838 22.771715 9.324314 9.722197 3.204163 -1.462614 -0.443205 -0.891166 0.000000 0.000000 0.000000 2.672905 -7.023871 23.466947 4.815400 8.304031 4.521511 -5.506577 -9.328701 -1.022759 0.000000 0.000000 0.000000
6.457680 53.253219 383.300102 0.357348 3.743774 -26.778403 -0.425537 -0.881543 26.729689 -0.576640 0.482765 -0.052472 -0.483367 -8.415495 0.941050 0.000000 0.000000 0.000000 -7.765186 -3.840132 1.099858 11.829628 -3.890284 -6.758429 -0.466397 0.769588 1.425601 -2.923133 2.111441 3.470906 0.000000 0.000000 0.000000 0.000000 0.000000 0.000000 -6.728645 -5.415743 -1.314642 12.534508 22.339686 3.150956 -5.320329 -22.237040 -10.213439 -11.147203 -35.995103 14.328270 0.000000 0.000000 0.000000 0.000000 0.000000 0.000000 -1.734232 -15.748355 22.556633 8.981143 9.631024 3.063597 -1.361854 -0.742474 -0.855355 0.000000 0.000000 0.000000 3.287955 -6.360504 23.240697 3.855544 7.797922 4.464266 -5.284023 -3.356700 0.149525 0.000000 0.000000 0.000000
